<?xml version="1.0" standalone="no"?>
<!DOCTYPE svg PUBLIC "-//W3C//DTD SVG 20010904//EN"
 "http://www.w3.org/TR/2001/REC-SVG-20010904/DTD/svg10.dtd">
<svg version="1.0" xmlns="http://www.w3.org/2000/svg"
 width="400.000000pt" height="400.000000pt" viewBox="0 0 400.000000 400.000000"
 preserveAspectRatio="xMidYMid meet">
<metadata>
Created by potrace 1.11, written by Peter Selinger 2001-2013
</metadata>
<g transform="translate(0.000000,400.000000) scale(0.100000,-0.100000)"
fill="#000000" stroke="none">
<path d="M1331 3991 c-8 -5 -41 -13 -73 -16 -32 -4 -65 -14 -73 -22 -8 -8 -19
-12 -23 -9 -5 3 -20 -1 -34 -8 -14 -7 -56 -19 -94 -26 -38 -8 -76 -18 -84 -24
-8 -6 -31 -19 -50 -29 -19 -10 -47 -35 -62 -57 -28 -39 -38 -90 -17 -90 8 0 7
-5 -1 -15 -7 -9 -14 -31 -16 -50 -1 -19 -12 -48 -23 -64 -12 -16 -21 -32 -21
-37 0 -4 -11 -21 -24 -38 -68 -89 -130 -263 -141 -396 -3 -47 -13 -128 -21
-180 -29 -190 -30 -163 10 -405 9 -55 28 -139 42 -186 14 -48 24 -104 22 -125
-3 -32 -7 -39 -37 -49 -47 -15 -77 -55 -90 -117 -16 -71 -5 -145 34 -248 18
-47 36 -112 40 -145 10 -88 69 -261 110 -321 57 -86 88 -98 172 -63 18 7 35
10 39 6 4 -4 9 -29 10 -55 15 -274 67 -466 179 -657 37 -64 42 -80 54 -184 14
-119 23 -242 23 -299 -1 -37 -15 -60 -47 -72 -11 -5 231 -9 537 -9 395 -1 565
2 585 10 15 7 42 18 60 25 17 8 34 14 37 14 10 0 51 44 49 52 -2 4 9 11 25 14
15 4 41 21 57 39 17 17 51 49 77 69 26 21 45 42 42 47 -9 15 -26 10 -20 -6 4
-12 2 -13 -13 -5 -14 7 -21 6 -23 -2 -2 -6 -20 -17 -39 -24 -19 -6 -33 -17
-31 -24 2 -7 -3 -10 -12 -7 -9 4 -18 2 -21 -3 -3 -5 -12 -7 -19 -4 -7 3 -20
-2 -29 -11 -12 -11 -18 -12 -23 -3 -5 7 -10 4 -16 -11 -4 -12 -13 -19 -19 -16
-8 5 -8 10 0 18 6 6 11 15 11 21 0 5 -3 7 -6 4 -3 -4 -19 -2 -35 2 -20 6 -27
5 -23 -2 4 -6 1 -9 -7 -6 -8 3 -13 13 -13 22 1 9 -2 16 -7 16 -5 0 -9 7 -9 15
0 20 -16 19 -24 -1 -3 -8 -10 -13 -15 -10 -5 4 -12 -2 -14 -11 -4 -14 -5 -13
-6 5 -1 15 -7 22 -21 22 -11 0 -20 6 -20 13 0 8 -4 7 -10 -3 -8 -12 -10 -9
-10 13 0 15 1 28 3 30 5 6 -28 35 -35 30 -5 -2 -8 0 -8 5 0 6 -9 8 -19 5 -13
-3 -21 2 -26 16 -3 12 -15 21 -26 21 -13 0 -19 7 -19 24 0 34 -10 56 -26 56
-8 0 -11 -6 -7 -18 5 -16 5 -16 -13 1 -24 22 -28 98 -5 89 11 -4 13 0 8 17 -3
13 -3 21 0 18 3 -3 22 0 42 8 20 7 56 16 81 19 24 2 46 10 49 17 5 15 38 48
67 67 17 12 17 12 -8 7 -30 -6 -36 3 -16 23 7 7 9 12 5 12 -4 0 2 10 13 23
l21 22 -65 3 c-56 2 -66 6 -66 21 0 13 13 21 48 31 54 15 182 21 182 9 0 -4
12 -4 28 1 36 13 62 9 84 -13 10 -9 26 -17 37 -17 21 0 71 -46 71 -67 0 -8 11
-25 24 -39 l23 -26 27 23 c21 18 25 29 21 50 -4 15 -1 47 5 71 19 70 19 177
-1 229 -10 26 -15 50 -12 53 8 8 -32 46 -49 47 -7 0 -4 4 7 9 15 6 16 9 4 9
-9 1 -21 12 -27 26 -10 21 -9 25 6 25 9 1 2 7 -16 15 -18 8 -31 19 -27 25 3 5
1 10 -5 10 -7 0 -10 7 -6 15 3 9 0 15 -9 15 -8 0 -15 6 -15 14 0 8 -7 16 -15
20 -8 3 -20 17 -27 31 -6 14 -16 24 -22 22 -19 -7 -65 26 -71 51 -10 39 -33 8
-40 -53 -5 -43 -2 -53 15 -65 11 -8 20 -18 20 -22 0 -5 12 -27 27 -51 56 -85
71 -137 42 -137 -17 0 -9 -25 16 -53 26 -28 42 -36 29 -15 -4 6 -3 8 3 5 15
-9 23 -56 9 -54 -6 1 -20 -17 -31 -40 -31 -66 -65 -69 -280 -27 -44 9 -88 20
-97 25 -20 11 -24 65 -7 89 8 12 9 9 5 -12 -5 -24 -3 -28 14 -28 12 0 18 -4
15 -10 -3 -5 0 -10 9 -10 8 0 17 -6 19 -12 4 -9 6 -8 6 3 1 8 -4 20 -10 26 -9
9 -9 20 0 44 6 18 9 35 6 37 -3 3 -5 1 -5 -5 0 -6 -9 -9 -20 -6 -11 3 -17 9
-14 14 3 5 11 7 17 3 7 -3 3 2 -8 11 -12 9 -21 11 -23 5 -2 -5 -8 -8 -12 -5
-5 3 -7 12 -4 20 5 11 11 12 24 5 29 -16 32 5 5 34 -29 31 -28 31 -15 56 6 12
16 17 26 13 8 -3 14 -2 13 3 -4 21 2 35 14 33 19 -4 91 19 112 36 17 13 18 16
5 25 -21 15 -97 7 -142 -14 -43 -21 -67 -18 -82 9 -6 11 -28 37 -49 58 -36 36
-39 37 -60 22 -12 -8 -29 -15 -38 -15 -19 0 -33 42 -24 71 4 10 2 19 -4 19
-10 0 -9 31 2 60 20 54 27 360 8 360 -3 0 -7 34 -9 76 l-4 77 26 -7 c15 -4 26
-2 26 4 0 5 -5 10 -12 10 -7 0 -5 7 5 18 15 16 15 21 2 39 -14 20 -10 63 5 63
5 0 10 -8 12 -17 2 -10 12 -18 23 -18 13 0 20 -7 20 -19 0 -13 10 -22 29 -27
15 -4 36 -15 45 -23 10 -9 20 -14 23 -11 3 3 16 -10 29 -30 18 -25 31 -35 51
-35 31 0 53 -30 45 -61 -3 -10 -1 -17 4 -13 5 3 13 -6 18 -19 5 -13 19 -27 31
-30 12 -3 20 -10 17 -14 -3 -5 -2 -15 2 -22 7 -10 13 -10 30 -2 19 11 25 8 22
-11 0 -5 6 -8 15 -8 11 0 15 6 11 20 -6 22 8 28 16 8 3 -10 9 -8 24 4 12 11
23 14 29 9 9 -10 135 1 188 17 49 14 44 32 -8 32 -32 0 -48 5 -52 15 -4 8 -12
15 -20 15 -8 0 -14 4 -14 8 0 12 57 52 74 52 8 0 17 4 21 9 3 6 25 13 49 16
33 5 53 2 84 -14 49 -25 75 -27 92 -6 20 25 -34 79 -122 122 -86 42 -108 74
-89 125 9 25 9 25 -27 17 -52 -12 -62 -11 -62 7 0 8 -4 12 -10 9 -5 -3 -10 -2
-10 3 0 6 -14 7 -37 2 -20 -5 -41 -7 -45 -4 -4 3 -8 1 -8 -3 0 -5 -20 -15 -45
-22 -25 -7 -55 -23 -67 -36 -19 -20 -23 -21 -39 -7 -10 9 -16 19 -13 24 7 12
-14 10 -38 -3 -17 -9 -23 -8 -30 5 -5 9 -15 16 -23 16 -8 0 -12 8 -9 23 2 12
2 16 -2 9 -8 -17 -24 -5 -24 18 0 10 -6 23 -13 27 -8 4 -16 16 -20 25 -4 11
-12 15 -22 12 -17 -7 -20 13 -5 36 6 9 5 17 -3 22 -7 5 -1 8 16 8 26 0 70 28
50 31 -19 4 -40 6 -67 8 -25 1 -27 4 -22 25 4 16 1 26 -9 30 -11 4 -14 0 -11
-17 3 -12 5 -26 5 -30 1 -4 11 -12 24 -17 l22 -9 -24 0 c-13 -1 -29 7 -36 16
-11 14 -13 11 -13 -25 -1 -47 11 -60 36 -40 15 12 16 11 3 -4 -7 -10 -20 -18
-27 -18 -20 0 -17 -18 4 -23 12 -3 9 -6 -12 -12 -18 -5 -36 -4 -48 4 -15 9
-18 8 -18 -8 0 -23 -16 -37 -23 -19 -7 20 -20 1 -19 -29 0 -15 -5 -34 -12 -42
-7 -10 -7 -13 0 -8 9 5 18 -7 42 -55 2 -5 -4 -8 -12 -8 -10 0 -16 9 -16 25 0
14 -5 25 -10 25 -6 0 -10 -8 -8 -17 2 -14 -3 -17 -22 -15 -14 2 -31 9 -37 14
-7 6 -13 8 -13 5 0 -3 -16 1 -36 9 -42 17 -50 14 -35 -14 14 -27 14 -32 -3
-32 -8 0 -33 16 -56 35 -24 20 -45 34 -47 31 -5 -5 -18 4 -54 37 -10 9 -23 17
-28 17 -15 0 -41 42 -41 64 0 24 -46 66 -71 66 -21 0 -59 69 -59 107 0 28 39
47 72 34 13 -4 34 -5 48 -2 14 4 54 5 90 3 81 -4 70 -4 165 3 44 3 109 7 143
9 73 5 86 11 48 25 -32 13 -34 23 -3 17 13 -2 30 0 38 5 11 7 10 9 -4 9 -11 0
-21 9 -24 21 -3 12 -11 18 -19 15 -7 -3 -20 1 -28 9 -8 8 -21 15 -29 15 -28 0
-77 22 -77 35 0 12 37 24 93 28 15 1 27 8 27 15 0 8 5 10 12 6 8 -5 9 -2 5 9
-3 10 -2 17 3 17 5 0 11 9 15 19 4 13 11 18 22 14 13 -5 15 -2 9 13 -5 10 -9
24 -9 31 0 7 -4 10 -8 7 -20 -12 -19 23 2 67 27 54 42 64 34 22 -3 -19 -1 -16
8 8 13 38 38 69 57 69 6 0 22 7 35 16 20 13 25 25 25 58 0 34 4 43 25 53 20 9
28 9 37 -1 9 -9 17 -6 35 12 13 13 28 20 33 17 6 -3 13 1 16 9 3 9 10 13 15
10 6 -3 15 -2 22 3 7 5 23 10 37 11 14 1 26 6 28 12 2 5 15 10 28 10 16 0 24
6 24 18 0 14 2 15 10 2 8 -12 10 -12 10 -1 0 8 7 11 18 9 10 -3 23 1 29 8 8 8
41 12 92 12 43 0 89 3 101 7 11 4 27 2 34 -5 8 -6 18 -10 22 -9 25 4 38 -7 83
-75 124 -183 145 -274 143 -620 -1 -178 0 -204 18 -244 13 -28 20 -67 20 -106
0 -86 15 -135 46 -147 32 -11 44 -5 44 25 0 13 7 29 16 36 43 37 58 133 57
370 -1 107 -7 173 -22 247 -12 56 -21 113 -21 127 0 40 -26 126 -54 182 -14
29 -26 63 -26 75 0 13 -7 38 -16 54 -10 18 -14 43 -10 63 4 24 0 38 -15 53
-10 10 -19 24 -19 30 0 21 -132 238 -165 272 -18 19 -48 40 -66 47 -44 18 -59
39 -52 69 5 21 3 23 -17 18 -15 -4 -29 1 -46 18 -13 13 -46 31 -72 38 -41 13
-96 37 -155 68 -10 5 -49 21 -87 35 -58 20 -85 24 -168 23 -55 -1 -106 2 -113
7 -8 5 -22 7 -32 6 -9 -2 -20 4 -23 12 -5 14 -43 16 -308 16 -165 0 -307 -4
-315 -9z m-427 -1127 c9 -3 16 -15 16 -25 0 -10 11 -26 24 -34 20 -14 24 -22
19 -50 -3 -22 1 -47 10 -68 13 -26 14 -42 7 -68 -6 -19 -10 -46 -10 -62 0 -24
2 -26 19 -17 23 12 41 13 41 3 -1 -5 -19 -28 -41 -53 l-41 -45 6 47 c4 34 1
49 -9 58 -8 7 -15 22 -15 34 0 12 -6 31 -14 42 -18 25 -28 102 -15 110 5 3 9
15 9 27 0 22 -1 22 -20 -3 -11 -14 -20 -20 -21 -15 0 6 -3 23 -5 39 -3 16 0
42 7 58 13 31 11 30 33 22z m536 -204 c0 -5 -5 -10 -11 -10 -5 0 -7 5 -4 10 3
6 8 10 11 10 2 0 4 -4 4 -10z m130 -33 c9 -3 4 -6 -12 -6 -23 -1 -28 3 -28 22
1 19 2 20 13 6 7 -9 19 -18 27 -22z m-568 -240 c-50 -54 -81 -110 -75 -141 3
-16 0 -34 -9 -44 -8 -9 -18 -26 -22 -36 -13 -38 -13 -9 0 67 7 42 18 86 24 96
5 11 10 29 10 40 0 14 5 19 15 15 8 -4 15 -1 15 5 0 16 64 53 69 40 2 -6 -10
-25 -27 -42z m1133 -197 c3 -5 1 -10 -4 -10 -6 0 -11 5 -11 10 0 6 2 10 4 10
3 0 8 -4 11 -10z m-1232 -117 c9 -64 11 -363 3 -370 -3 -4 -6 -22 -7 -42 0
-20 -4 -45 -9 -56 -7 -16 -9 -13 -9 17 -1 20 -6 49 -12 65 -12 32 -30 120 -35
178 -2 22 5 67 16 100 10 33 22 81 26 108 3 26 10 47 14 47 4 0 10 -21 13 -47z
m1658 -46 c-24 -25 -37 -17 -22 12 7 13 17 18 27 14 14 -5 13 -9 -5 -26z
m-511 -878 c0 -6 -4 -7 -10 -4 -5 3 -10 11 -10 16 0 6 5 7 10 4 6 -3 10 -11
10 -16z m50 -109 c0 -5 -2 -10 -4 -10 -3 0 -8 5 -11 10 -3 6 -1 10 4 10 6 0
11 -4 11 -10z m-180 -14 c0 -3 -4 -8 -10 -11 -5 -3 -10 -1 -10 4 0 6 5 11 10
11 6 0 10 -2 10 -4z m157 -18 c-3 -8 -6 -5 -6 6 -1 11 2 17 5 13 3 -3 4 -12 1
-19z m-147 -12 c0 -3 -4 -8 -10 -11 -5 -3 -10 -1 -10 4 0 6 5 11 10 11 6 0 10
-2 10 -4z m-24 -733 c-10 -10 -19 5 -10 18 6 11 8 11 12 0 2 -7 1 -15 -2 -18z"/>
<path d="M2058 3993 c7 -3 16 -2 19 1 4 3 -2 6 -13 5 -11 0 -14 -3 -6 -6z"/>
<path d="M3990 3386 l0 -614 -182 -2 c-101 0 -203 -2 -228 -5 -25 -2 -92 -6
-150 -10 -130 -8 -202 -27 -223 -59 -15 -22 -14 -24 11 -36 97 -45 237 -75
330 -71 30 1 52 -1 49 -6 -7 -12 327 -10 335 2 5 6 8 5 8 -2 0 -7 7 -13 15
-13 8 0 15 5 15 12 0 6 3 8 8 4 4 -4 9 -589 12 -1299 5 -1257 5 -1238 8 711 1
1101 0 2002 -3 2002 -3 0 -5 -276 -5 -614z"/>
<path d="M1946 2921 c-4 -7 -5 -15 -2 -18 9 -9 19 4 14 18 -4 11 -6 11 -12 0z"/>
<path d="M2088 2603 c7 -3 16 -2 19 1 4 3 -2 6 -13 5 -11 0 -14 -3 -6 -6z"/>
<path d="M1925 2530 c-3 -5 -1 -10 4 -10 6 0 11 5 11 10 0 6 -2 10 -4 10 -3 0
-8 -4 -11 -10z"/>
<path d="M1954 2522 c3 -5 0 -12 -6 -15 -7 -2 -10 -7 -7 -11 3 -4 12 0 18 8 9
11 9 16 0 22 -7 4 -9 3 -5 -4z"/>
<path d="M1926 2435 c-9 -35 -9 -39 2 -43 5 -1 9 3 9 10 0 7 3 23 7 36 4 12 3
22 -2 22 -6 0 -13 -11 -16 -25z"/>
<path d="M2050 2384 c0 -8 5 -12 10 -9 6 4 8 11 5 16 -9 14 -15 11 -15 -7z"/>
<path d="M3186 2234 c-20 -20 -21 -18 10 -116 42 -133 55 -168 64 -168 13 0
29 68 29 125 0 69 -16 123 -44 151 -28 28 -38 30 -59 8z"/>
<path d="M3020 2048 c1 -7 10 -29 20 -48 l20 -35 -6 30 c-10 52 -15 65 -25 65
-5 0 -9 -6 -9 -12z"/>
<path d="M3070 1940 c0 -17 6 -43 13 -58 8 -15 19 -53 26 -85 14 -66 34 -72
39 -11 4 41 -15 114 -30 114 -4 0 -8 10 -8 23 0 12 -9 28 -20 35 -18 11 -20
10 -20 -18z"/>
<path d="M2510 265 c0 -8 5 -15 10 -15 6 0 10 7 10 15 0 8 -4 15 -10 15 -5 0
-10 -7 -10 -15z"/>
<path d="M2990 205 c0 -4 7 -32 16 -62 9 -30 14 -74 12 -99 l-3 -44 260 0 260
0 -33 20 c-18 11 -34 20 -36 20 -3 0 -43 22 -90 50 -93 53 -114 60 -251 90
-49 10 -100 22 -112 26 -13 3 -23 3 -23 -1z"/>
<path d="M1053 110 c-24 -11 -89 -31 -145 -46 -57 -15 -119 -35 -138 -45 l-35
-18 165 0 165 0 28 57 c15 31 27 60 27 65 0 11 -21 7 -67 -13z"/>
</g>
</svg>
